2.5Hzhigh3min_grf.mot
version=1
nRows=10
nColumns 19
inDegrees=yes
endheader
time	1_ground_force_vx	1_ground_force_vy	1_ground_force_vz	1_ground_force_px	1_ground_force_py	1_ground_force_pz	1_ground_torque_x	1_ground_torque_y	1_ground_torque_z	2_ground_force_vx	2_ground_force_vy	2_ground_force_vz	2_ground_force_px	2_ground_force_py	2_ground_force_pz	2_ground_torque_x	2_ground_torque_y	2_ground_torque_z
            1.253500	           -0.137274	            2.342248	            0.285525	           -0.233013	            0.005581	           -0.255695	            0.155774	           -0.425220	           -0.008157	            0.657242	           -0.187303	            1.547691	           -0.232311	            0.006130	           -0.833667	           -0.150876	            0.132736	           -0.263367
            1.254000	            0.092966	            2.340522	            0.697660	           -0.233013	            0.005581	           -0.255695	            0.100441	           -0.267650	           -0.072763	            0.562110	            0.181492	            1.314405	           -0.232311	            0.006130	           -0.833667	           -0.188635	            0.189182	           -0.225448
            1.254500	            0.368219	            2.520448	            0.789462	           -0.233013	            0.005581	           -0.255695	            0.153126	            0.027554	            0.109277	            0.793975	            0.737963	            0.424642	           -0.232311	            0.006130	           -0.833667	           -0.188175	            0.066163	           -0.188186
            1.255000	            0.734150	            1.981295	            0.419385	           -0.233013	            0.005581	           -0.255695	            0.112551	            0.323893	            0.032314	            0.656501	           -0.181278	           -0.141720	           -0.232311	            0.006130	           -0.833667	           -0.262309	           -0.217555	           -0.226866
            1.255500	            0.550859	            2.161328	            0.466469	           -0.233013	            0.005581	           -0.255695	            0.129241	            0.277597	            0.024249	            0.422026	           -0.180283	           -0.657830	           -0.232311	            0.006130	           -0.833667	           -0.374484	           -0.369138	           -0.246208
            1.256000	            0.504202	            2.883562	            0.194540	           -0.233013	            0.005581	           -0.255695	            0.215477	           -0.110318	           -0.054801	            0.282990	           -0.550593	           -0.236731	           -0.232311	            0.006130	           -0.833667	           -0.261832	           -0.349893	           -0.227339
            1.256500	            0.092007	            1.981760	            0.283411	           -0.233013	            0.005581	           -0.255695	            0.156156	           -0.351409	            0.058339	            0.374381	            0.183493	            0.563635	           -0.232311	            0.006130	           -0.833667	           -0.224944	           -0.151519	           -0.151245
            1.257000	           -0.641091	            2.341364	            0.470201	           -0.233013	            0.005581	           -0.255695	            0.110219	           -0.443699	           -0.086020	            0.423431	           -0.370456	            1.030925	           -0.232311	            0.006130	           -0.833667	           -0.244549	            0.075278	           -0.150428
            1.257500	           -0.365563	            2.881231	            0.701116	           -0.233013	            0.005581	           -0.255695	            0.100317	           -0.222127	            0.020654	            0.656639	           -0.003657	            1.689133	           -0.232311	            0.006130	           -0.833667	           -0.263700	            0.169939	           -0.206633
            1.258000	            0.046116	            1.621417	            0.236122	           -0.233013	            0.005581	           -0.255695	            0.083169	            0.092238	            0.058480	            0.657762	           -0.370280	            1.218538	           -0.232311	            0.006130	           -0.833667	           -0.169355	            0.056778	           -0.188228
